<?xml version="1.0" encoding="UTF-8"?><svg id="Laag_2" xmlns="http://www.w3.org/2000/svg" viewBox="0 0 65.04 68.2"><defs><style>.cls-1{fill:#fff;}.cls-1,.cls-2,.cls-3{stroke-width:0px;}.cls-2{fill:#f1920c;}.cls-3{fill:#f1930f;}</style></defs><g id="Laag_1-2"><path class="cls-1" d="m1.49,45.6q-1.04.04-1.04,1.06c0,3.9.01,7.8-.01,11.7,0,.52.12.66.65.66,6.93-.02,13.86-.01,20.79,0,13.82.01,27.63.02,41.45.05.58,0,.77-.1.77-.74-.02-3.34-.02-6.69.05-10.03.11-4.99-.04-9.98.09-14.97.15-5.95-.01-11.9.14-17.85.12-4.79.04-9.58.12-14.37,0-.49-.15-.57-.6-.57-20.95.01-41.9.01-62.85,0-.55,0-.64.17-.64.66.02,6.62.01,13.24.01,19.86,0,.18,0,.36,0,.53,0,.12-.02.22-.18.22-.15,0-.26-.02-.25-.21,0-.18,0-.36,0-.53C0,14.47,0,7.88,0,1.28Q0,.01,1.3.01C22.28.01,43.25.02,64.22,0c.62,0,.83.11.82.79-.06,2.52,0,5.04-.08,7.55-.16,5.44.03,10.87-.12,16.31-.17,5.88.03,11.77-.14,17.65-.16,5.55-.02,11.1-.1,16.64,0,.52-.15.61-.64.61-21.11-.01-42.21-.01-63.32,0-.46,0-.64-.05-.64-.59.03-4.35.03-8.69,0-13.04,0-.63.1-.96.81-.82.22.04.44.01.67.02,0,.16,0,.32,0,.49Z"/><path class="cls-1" d="m15.61,36.04c1.41-.15,1.4-.15,1.67,1.15.1.48.23.96.47,1.43.2-.72.44-1.44.59-2.17.11-.56.49-.45.85-.47.35-.02.56.04.65.46.14.73.38,1.44.58,2.21.34-.4.23-.91.42-1.33.03-.08.03-.17.05-.26q.26-1.21,1.63-1.01c-.39,1.33-.79,2.65-1.16,3.98-.19.7-.72.26-1.09.36-.35.1-.5-.12-.58-.44-.18-.72-.37-1.44-.61-2.36-.27.92-.5,1.67-.69,2.43-.06.25-.1.44-.39.37-.4-.09-1.01.29-1.2-.25-.45-1.35-.79-2.73-1.18-4.11Z"/><path class="cls-1" d="m46.16,40.71c1.91.48,2.44.31,2.35-.73-.4.22-.81.33-1.26.3-.23-.02-.44-.08-.63-.18-.99-.53-1.06-2.03-.71-3.05.34-.98,1.26-1.38,2.32-1.05.48.15.94-.1,1.41-.01.19.03.42-.05.41.28-.06,1.35.15,2.71-.12,4.05-.23,1.16-.75,1.59-1.92,1.69-.54.04-1.06-.08-1.59-.13-.21-.02-.26-.12-.26-.3,0-.29,0-.57,0-.87Zm2.44-2.66c0-.2-.02-.4,0-.6.06-.46-.16-.54-.57-.55-.57,0-.8.33-.9.78-.12.53-.11,1.06.38,1.44.06.05.16.05.25.06.67.09.84-.13.84-1.15Z"/><path class="cls-1" d="m5.7,40.41c-.57,0-1.01-.01-1.45,0-.26.01-.4-.11-.53-.31-.36-.56-.74-1.1-1.11-1.65-.08-.12-.14-.33-.31-.27-.15.05-.26.23-.27.42,0,.45-.03.89,0,1.34.03.38-.11.52-.48.48-.2-.02-.4-.02-.6,0-.3.02-.38-.1-.38-.39.01-1.65.01-3.3,0-4.94,0-.31.07-.46.41-.43.2.02.4.02.6,0,.34-.04.47.08.46.44-.03.62,0,1.25,0,1.95.49-.33.7-.82,1-1.22.91-1.22.89-1.23,2.48-1.13-.58.77-1.09,1.54-1.7,2.22-.29.33-.19.52,0,.78.61.88,1.22,1.76,1.89,2.72Z"/><path class="cls-1" d="m2.16,27.52c.42-.59.86-1.17,1.25-1.78.29-.45.63-.7,1.19-.6.27.05.56,0,.95,0-.61.8-1.13,1.54-1.72,2.22-.29.34-.22.56,0,.87.6.82,1.17,1.65,1.83,2.59-.58,0-1.06-.02-1.54,0-.3.01-.36-.22-.48-.39-.43-.61-.84-1.24-1.26-1.86-.37.26-.34.59-.34.92,0,1.32,0,1.32-.77,1.32q-.68,0-.68-1.35c0-1.25.04-2.5-.02-3.74-.03-.65.32-.6.73-.58.38.02.82-.14.75.55-.06.59-.01,1.19-.01,1.79l.13.04Z"/><path class="cls-3" d="m2.23,67.97c-.53,0-1.07-.02-1.6,0-.34.01-.47-.08-.46-.44.02-1.67.02-3.34,0-5,0-.34.08-.47.45-.46,1.09.02,2.18.03,3.27,0,.52-.02.41.3.44.6.03.37-.09.51-.48.49-.51-.03-1.02.01-1.53-.01-.39-.02-.61.04-.59.52,0,.43.12.59.56.56.44-.04.89.02,1.33-.02.52-.05.43.29.44.59,0,.32.06.63-.45.59-.46-.04-.93,0-1.4-.01-.33-.01-.51.08-.47.44.02.2.02.4,0,.6-.05.4.15.48.5.47.55-.02,1.11.02,1.67-.01.47-.03.42.25.42.55,0,.29.05.58-.42.55-.55-.03-1.11,0-1.67,0Z"/><path class="cls-2" d="m61.97,66.05c-.27.53-.16.98-.15,1.4,0,.4-.09.54-.52.53-.97-.01-.97.01-.97-.94,0-1.56.04-3.12-.02-4.67-.03-.67.34-.58.74-.57.37.01.81-.15.76.54-.06.9-.01,1.81-.01,2.92.74-1.13,1.35-2.22,2.84-1.61-.37.47-.74.98-1.16,1.45-.23.27-.24.45-.03.74.47.65.89,1.34,1.31,2-1.77.74-2.07-.79-2.8-1.8Z"/><path class="cls-2" d="m16.93,63.62c-.42.52-.78,1-1.17,1.45-.24.28-.27.49-.04.8.46.64.87,1.32,1.29,1.96-1.75.77-2.07-.79-2.79-1.76-.26.52-.13.99-.14,1.44,0,.33-.07.51-.44.46-.2-.02-.4-.02-.6,0-.36.04-.45-.12-.45-.46.01-1.76.02-3.52,0-5.28,0-.37.13-.47.46-.44.18.02.36.02.53,0,.38-.05.5.09.49.48-.03.91,0,1.82,0,2.85.21-.24.42-.39.5-.59.47-1.05,1.31-1.16,2.36-.92Z"/><path class="cls-2" d="m43.79,63.89c.55-.3,1.04-.58,1.65-.51.62.07.99.41,1.11.97.23,1.1.08,2.21.12,3.32,0,.23-.12.28-.33.31-1.03.13-1.11.07-1.11-.99,0-.56,0-1.11,0-1.67,0-.48-.23-.8-.7-.79-.44.02-.79.19-.75.78.05.73-.01,1.47.02,2.2.03.64-.42.43-.72.44-.29,0-.67.16-.67-.43.03-1.76.03-3.52,0-5.27-.01-.64.4-.44.71-.45.34-.02.74-.12.68.49-.05.5,0,1.01,0,1.59Z"/><path class="cls-1" d="m34.26,36.36c.26-.14.46-.27.68-.36.83-.32,1.64-.02,1.96.81.32.82.33,1.69,0,2.52-.3.73-.86,1.21-1.7,1.07-.63-.11-1.25.01-1.87.02-.32,0-.42-.09-.42-.41.01-1.73.02-3.47,0-5.2,0-.61.41-.4.68-.4.27,0,.72-.21.68.4-.03.5,0,1.01,0,1.56Zm0,1.85c0,.16-.02.31,0,.46.05.27-.19.68.26.78.45.1.85-.06,1.06-.48.24-.49.22-1.01.05-1.54-.14-.42-.46-.53-.83-.48-.4.05-.62.28-.54.73.03.17,0,.35,0,.53Z"/><path class="cls-3" d="m37.16,66.61c.14,1.32,0,1.48-1.28,1.48-.66,0-1.33.07-1.95-.27-.8-.44-1.29-1.49-1.1-2.43.26-1.27.85-1.89,1.93-2,1.77-.18,2.63.58,2.58,2.24-.01.35-.1.46-.46.45-.73-.02-1.47-.01-2.2,0-.14,0-.33-.09-.4.12-.06.17.07.29.16.42.38.51,1.19.64,2,.32.22-.09.43-.2.71-.33Zm-2.11-1.4c.25-.18.73.24.8-.29.06-.46-.33-.68-.72-.68-.42,0-.84.27-.83.7.02.45.5.1.75.26Z"/><path class="cls-3" d="m59.5,66.61c.1,1.32-.05,1.49-1.31,1.49-.61,0-1.23.08-1.82-.22-.86-.44-1.39-1.45-1.21-2.43.23-1.28.86-1.93,1.97-2.04,1.73-.17,2.58.57,2.55,2.2,0,.37-.09.51-.48.49-.73-.03-1.47-.01-2.2,0-.12,0-.28-.05-.36.08-.09.16.03.29.12.42.39.55,1.19.69,2.05.34.22-.09.43-.19.7-.32Zm-2.08-1.39c.22-.21.72.27.77-.31.04-.44-.32-.61-.69-.66-.36-.05-.97.45-.88.73.13.42.53.09.8.24Z"/><path class="cls-3" d="m11.71,66.62c.2,1.13.14,1.33-.81,1.43-1.09.12-2.25.27-3.07-.76-.63-.8-.61-1.71-.28-2.58.3-.78.92-1.25,1.82-1.32,1.64-.13,2.41.49,2.54,2.12.03.4-.05.61-.52.58-.73-.04-1.47,0-2.2-.01-.38,0-.42.18-.27.45.32.58.88.58,1.44.56.49-.02.9-.3,1.35-.47Zm-2.06-1.4c.26-.16.67.19.78-.26.08-.32-.41-.76-.8-.71-.39.05-.8.22-.77.67.04.56.54.11.78.3Z"/><path class="cls-2" d="m28.91,65.79c.03,1.78-1.05,2.41-2.28,2.41-1.45,0-2.33-.75-2.39-2.42-.06-1.5.88-2.42,2.36-2.42,1.52,0,2.31.83,2.31,2.43Zm-1.46-.01c0-.09,0-.18,0-.27-.03-.73-.32-1.14-.82-1.16-.5-.02-.88.47-.92,1.16,0,.07,0,.13,0,.2,0,.9.33,1.45.91,1.44.59,0,.85-.42.84-1.38Z"/><path class="cls-1" d="m15,38.24c0,.51.02,1.02,0,1.53-.01.21.16.58-.17.61-.39.03-.93.25-1.16-.14-.19-.34-.3-.15-.42-.07-1.1.74-2.38.26-2.39-1.4,0-.78.02-1.56,0-2.34-.01-.35.09-.45.44-.45.97,0,.97-.03.97.93,0,.6.05,1.2.04,1.8,0,.5.22.66.7.63.49-.03.64-.27.63-.74-.03-.64.03-1.29-.02-1.93-.05-.56.13-.72.69-.7.5.02.79.05.72.66-.06.53-.01,1.07-.01,1.6Z"/><path class="cls-1" d="m25.53,38.42c-.31,0-.62-.01-.93,0-.16.01-.4-.11-.46.11-.04.14.06.34.14.49.24.41,1.05.59,1.7.41.13-.03.24-.1.37-.13.22-.05.43-.44.66-.09.22.33-.04.93-.41,1.07-.79.29-1.6.31-2.4.07-1.17-.35-1.73-1.55-1.4-2.83.37-1.41,1.71-1.79,2.67-1.61,1.16.22,1.59.85,1.57,2.08,0,.36-.12.47-.46.44-.35-.03-.71,0-1.07,0Zm-1.43-.82c.45,0,.82,0,1.2,0,.13,0,.32.1.39-.12.06-.19-.04-.35-.15-.48-.23-.3-.57-.22-.86-.17-.36.06-.5.37-.58.78Z"/><path class="cls-1" d="m40.4,38.42c-.38,0-.76,0-1.13,0-.34,0-.36.13-.25.41.24.58,1.01.84,1.84.6.11-.03.21-.11.31-.1.24.01.52-.54.67-.06.11.34.25.86-.43,1.05-.79.21-1.57.28-2.34.05-1.16-.34-1.76-1.54-1.42-2.83.37-1.39,1.6-1.81,2.66-1.63,1.17.2,1.65.9,1.6,2.12-.01.33-.13.42-.43.4-.35-.02-.71,0-1.07,0Zm-1.46-.82c.46,0,.87,0,1.29,0,.39,0,.36-.17.24-.45-.17-.41-.51-.36-.84-.34-.46.03-.59.36-.69.8Z"/><path class="cls-1" d="m11.97,28.91c.25.91.89,1.26,1.78,1.03.17-.04.33-.14.5-.17.2-.04.39-.41.61-.09.19.28-.02.99-.31,1.07-.91.25-1.84.31-2.73-.02-.88-.33-1.38-1.41-1.2-2.41.21-1.16.95-1.88,2.02-1.94,1.5-.09,2.25.57,2.33,2.04.02.36-.06.52-.46.51-.82-.03-1.64,0-2.52,0Zm0-.8c.4,0,.75.02,1.1,0,.16-.01.43.15.46-.18.03-.3-.14-.51-.41-.6-.55-.2-.94.06-1.16.8Z"/><path class="cls-2" d="m47.75,65.76c0-.53-.01-1.07,0-1.6,0-.2-.13-.54.14-.57.39-.05.94-.25,1.16.12.2.35.26.08.35.03.42-.28.88-.4,1.39-.34.61.07,1.09.53,1.11,1.19.03,1,0,2,.02,3,0,.67-.49.33-.77.38-.29.05-.62.1-.6-.43.04-.71.04-1.43,0-2.13-.05-.77-.43-1.02-1.08-.78-.3.11-.38.3-.37.6.02.78-.02,1.56.01,2.34.02.6-.4.41-.68.41-.28,0-.71.2-.69-.4.03-.6,0-1.2,0-1.8Z"/><path class="cls-1" d="m5.77,38.14c-.09-1.5.92-2.26,2.16-2.27,1.35-.01,2.28.79,2.28,2.32,0,1.28-.71,2.31-2.23,2.32-1.44,0-2.36-.97-2.21-2.37Zm3.09.27c-.02-.33.01-.52-.04-.68-.13-.38-.19-.8-.78-.83-.61-.02-.77.34-.88.79-.12.46-.06.92.11,1.36.11.28.33.4.62.41.3.01.57-.02.73-.32.14-.28.26-.56.24-.73Z"/><path class="cls-1" d="m7.98,30.92c-1.3.19-2.27-.94-2.24-2.31.03-1.45,1.01-2.28,2.27-2.25,1.42.03,2.13.82,2.2,2.32.06,1.22-.83,2.42-2.23,2.24Zm.86-2.22c.07-.31-.05-.6-.15-.89-.11-.33-.42-.45-.74-.45-.3,0-.57.14-.68.43-.22.57-.26,1.15,0,1.73.12.28.34.44.66.45.32.02.55-.12.71-.39.16-.27.25-.56.21-.89Z"/><path class="cls-1" d="m27.84,38.18c0-.56.02-1.11,0-1.67-.02-.4.08-.63.5-.51.29.08.71-.29.88.27.05.17.23-.02.3-.07,1.11-.81,2.45-.15,2.35,1.4-.05.78-.04,1.56,0,2.34.04.63-.37.46-.69.47-.33,0-.72.13-.67-.49.06-.69.03-1.38,0-2.07-.02-.67-.28-.87-.85-.8-.36.04-.49.2-.48.56.02.76-.04,1.52.02,2.27.05.64-.33.52-.7.53-.41.02-.74.03-.67-.56.06-.55.01-1.11.01-1.67Z"/><path class="cls-1" d="m15.67,28.65c0-.45-.02-.89,0-1.34.02-.27-.15-.74.13-.77.38-.04.9-.34,1.21.21.12.2.23,0,.3-.04.33-.19.64-.37,1.05-.36.77.02,1.3.5,1.31,1.28.02.91-.02,1.83.01,2.74.03.65-.43.41-.72.43-.31.02-.68.12-.64-.46.05-.71,0-1.42.01-2.14,0-.45-.2-.75-.64-.74-.4.01-.75.16-.71.73.05.73-.01,1.47.02,2.2.03.61-.41.4-.68.4-.29,0-.71.18-.67-.42.04-.58,0-1.16,0-1.74Z"/><path class="cls-2" d="m20.41,67.04c.18,1.05.17,1-.86,1.06-1.53.09-1.95-.54-1.88-1.93.02-.4,0-.8,0-1.2,0-.23.09-.49-.32-.51-.22-.01-.31-.86-.12-.87.66-.03.46-.51.43-.81-.06-.58.24-.62.67-.57.36.04.94-.22.81.54-.1.61.09.92.76.8.29-.05.6-.09.6.43,0,.52-.25.55-.61.5-.59-.09-.86.11-.76.74.05.35,0,.71,0,1.07,0,.83.23.99,1.07.77.06-.02.13,0,.2-.01Z"/><path class="cls-2" d="m41.69,66.58c.16,1.37.04,1.51-1.25,1.51-1.5,0-2.24-.35-2.57-1.39-.54-1.69.25-3.31,2.14-3.32.29,0,.58,0,.87.04.77.08,1.06.53.87,1.27-.06.24-.19.22-.33.13-.23-.14-.44-.29-.7-.38-.62-.21-1.17.02-1.43.59-.24.54-.11,1.54.26,1.81.57.4,1.16.35,1.72-.04.11-.07.23-.12.41-.22Z"/><path class="cls-2" d="m29.83,65.9c0-.31,0-.62,0-.93,0-.25.04-.47-.34-.5-.23-.02-.28-.86-.08-.87.62-.04.44-.49.4-.77-.07-.61.26-.62.71-.61.4.01.78-.03.66.56-.12.63.12.9.77.79.31-.05.58-.06.59.44,0,.53-.27.54-.62.48-.6-.09-.84.13-.76.75.05.37,0,.75.01,1.13.02.64.32.89.93.78.17-.03.43-.25.39.13-.02.28.26.74-.27.81-.48.06-.99.07-1.46-.01-.56-.1-.94-.46-.94-1.1,0-.36,0-.71,0-1.07,0,0,0,0-.01,0Z"/><path class="cls-3" d="m13.13,45.11c2.18-.02,4.36-.03,6.54-.05,3.65-.03,7.3-.07,10.94-.1.18,0,.36,0,.53.01.18.02.19.16.19.3,0,.13-.06.21-.19.21-.11,0-.22,0-.33,0-5.76.02-11.52.04-17.29.06-.13,0-.26-.03-.39-.05,0-.13,0-.26,0-.39Z"/><path class="cls-3" d="m22.53,64.04c.12-.09.23-.17.34-.24.35-.23.78-.41,1.12-.21.28.17.07.62.11.94.03.25-.06.36-.34.32-.21-.03-.44,0-.66,0-.47,0-.67.2-.64.7.04.64-.01,1.29.02,1.93.02.39-.13.48-.5.49-.95,0-.95.03-.95-.95,0-.96-.01-1.91,0-2.87,0-.23-.19-.67.32-.61.42.05,1.05-.35,1.18.48Z"/><path class="cls-2" d="m5.23,64.82c0-.87.01-1.73,0-2.6-.01-.66.47-.36.75-.4.28-.04.62-.12.61.41-.03,1.78-.02,3.56,0,5.34,0,.6-.41.4-.69.4-.28,0-.7.19-.68-.41.03-.91,0-1.82,0-2.73Z"/><path class="cls-1" d="m44,36.54c.2-.12.35-.2.5-.3.29-.19.68-.41.91-.2.24.22.07.67.08,1.02,0,.2-.14.18-.28.16-.24-.03-.48.03-.72.05-.52.04-.6.31-.58.75.03.67,0,1.33.01,2,0,.29-.1.37-.38.38-.99.05-.99.07-.99-.9,0-.96-.02-1.91.01-2.86,0-.22-.24-.6.28-.66.78-.1,1.02,0,1.16.55Z"/><path class="cls-3" d="m52.98,65.77c0-.44,0-.89,0-1.33,0-.83.48-1.15,1.27-.88.21.07.19.22.19.37,0,1.22,0,2.45,0,3.67,0,.28-.09.37-.38.39-1.08.08-1.08.09-1.08-1.01,0-.4,0-.8,0-1.2Z"/><path class="cls-1" d="m1.49,45.6c0-.16,0-.32,0-.49,1.3,0,2.59,0,3.89,0,0,.16,0,.32,0,.48-1.3,0-2.59,0-3.89,0Z"/><path class="cls-2" d="m53.74,62.88c-.36-.03-.79.18-.79-.53,0-.68.4-.54.77-.54.39,0,.77-.12.75.56-.02.65-.39.49-.74.51Z"/><path class="cls-2" d="m7.39,45.1c.71,0,1.42,0,2.13,0,0,.14,0,.29,0,.43-.71.1-1.42.09-2.14.06,0-.16,0-.33,0-.49Z"/><path class="cls-1" d="m7.39,45.1c0,.16,0,.33,0,.49-.67,0-1.34,0-2.01,0,0-.16,0-.32,0-.48.67,0,1.34,0,2.01,0Z"/><path class="cls-3" d="m9.52,45.54c0-.14,0-.29,0-.43.58,0,1.16,0,1.74,0,0,.14.01.28.02.43-.59.08-1.17.08-1.76,0Z"/><path class="cls-2" d="m11.28,45.54c0-.14-.01-.28-.02-.43.62,0,1.25,0,1.87,0,0,.13,0,.26,0,.39-.62.01-1.23.02-1.85.03Z"/></g></svg>