<?xml version="1.0" encoding="UTF-8"?><svg id="Laag_2" xmlns="http://www.w3.org/2000/svg" viewBox="0 0 84.98 34.03"><defs><style>.cls-1{fill:#fff;stroke-width:0px;}</style></defs><g id="Laag_1-2"><path class="cls-1" d="m48.07,34.03h-12.06c-.09-.03-.18-.05-.27-.08-.62-.21-.99-.77-.99-1.49,0-10.3,0-20.59,0-30.89,0-.05,0-.1,0-.15.02-.61.42-1.15.99-1.34.09-.03.18-.05.27-.08,4.01,0,8.02,0,12.03,0,.37.03.74.06,1.1.1,1.19.12,2.36.37,3.47.83,2.17.91,3.64,2.46,4.35,4.71.34,1.07.45,2.16.47,3.27.01,1.05-.05,2.1-.33,3.13-.36,1.36-1.07,2.48-2.32,3.21-.28.16-.58.28-.86.43-.07.04-.15.12-.15.18,0,.06.1.12.17.17.03.02.07.02.11.03,1.11.33,2.05.93,2.81,1.8.86.98,1.38,2.13,1.7,3.38.44,1.74.47,3.51.19,5.27-.22,1.38-.71,2.66-1.56,3.78-.98,1.29-2.26,2.15-3.75,2.73-1.43.56-2.92.82-4.45.93-.31.02-.62.04-.92.07Zm-6.93-10.16c0,1.25,0,2.5,0,3.75,0,.66.4,1.07,1.06,1.07,1.46,0,2.92,0,4.38,0,.78,0,1.55-.05,2.3-.24,1.5-.38,2.47-1.31,2.82-2.84.28-1.25.24-2.51-.07-3.75-.31-1.25-1.1-2.06-2.33-2.46-.8-.26-1.62-.35-2.45-.35-1.53-.01-3.07,0-4.6-.01-.62,0-1.14.4-1.12,1.13.02,1.23,0,2.47,0,3.7Zm0-14.3c0,1.05,0,2.09,0,3.14,0,.7.39,1.09,1.09,1.09,1.3,0,2.6,0,3.9,0,.65,0,1.31-.02,1.95-.14,1.26-.24,2.09-.95,2.4-2.21.3-1.23.31-2.47,0-3.7-.27-1.07-.95-1.76-2-2.1-.67-.22-1.36-.3-2.06-.3-1.42,0-2.85,0-4.27,0-.08,0-.17,0-.25.02-.48.11-.76.49-.77,1.03,0,1.06,0,2.12,0,3.17Z"/><path class="cls-1" d="m5.24,34.03H.82s-.02-.02-.03-.02c-.67-.13-.93-.89-.72-1.47,1.42-3.92,2.83-7.84,4.24-11.76C6.65,14.3,8.98,7.82,11.32,1.34c.17-.46.44-.83.88-1.06C12.43.15,12.7.09,12.95,0c1.51,0,3.01,0,4.52,0,.01,0,.03.02.04.03.81.15,1.32.63,1.6,1.4,2.83,7.85,5.66,15.7,8.49,23.55.92,2.54,1.83,5.08,2.75,7.63.18.51-.05,1.22-.7,1.39-.03,0-.05.02-.07.03h-4.42s-.04-.02-.06-.03c-.81-.15-1.35-.62-1.61-1.41-1.57-4.81-3.14-9.63-4.73-14.44-1.02-3.1-2.05-6.19-2.93-9.33-.16-.56-.29-1.12-.45-1.68-.02-.07-.11-.16-.18-.18-.11-.03-.17.07-.19.18-.01.07-.03.14-.05.21-.72,2.42-1.4,4.84-2.16,7.25-1.29,4.03-2.63,8.04-3.95,12.06-.65,1.99-1.3,3.97-1.95,5.96-.22.67-.67,1.12-1.34,1.34-.1.03-.21.06-.32.08Z"/><path class="cls-1" d="m66.52,34.03c-.12-.04-.25-.07-.37-.13-.55-.26-.84-.7-.88-1.3,0-.06,0-.11,0-.17,0-10.28,0-20.56,0-30.84,0-.67.27-1.18.88-1.47.12-.06.25-.08.37-.13,1.28,0,2.57,0,3.85,0,.07.02.13.04.2.06.59.18,1,.7,1.03,1.31,0,.09,0,.18,0,.27,0,8.58,0,17.16,0,25.74,0,.48.16.85.62,1.04.15.06.32.08.49.08,3.55,0,7.1,0,10.65,0,.38,0,.74.07,1.04.31.34.27.55.63.56,1.07.01.92.02,1.84,0,2.76-.01.69-.48,1.22-1.16,1.37-.03,0-.05.02-.07.03h-17.21Z"/><path class="cls-1" d="m13.15,34.03c-.25-.12-.52-.2-.73-.36-.36-.26-.52-.66-.52-1.1,0-1.11-.01-2.21,0-3.32,0-.85.65-1.46,1.5-1.47,1.16,0,2.31,0,3.47,0,.87,0,1.5.63,1.5,1.49,0,1.08,0,2.17,0,3.25,0,.76-.46,1.31-1.2,1.47-.02,0-.04.02-.06.03h-3.95Z"/></g></svg>