<?xml version="1.0" encoding="UTF-8"?><svg id="Laag_2" xmlns="http://www.w3.org/2000/svg" viewBox="0 0 83.42 26.12"><defs><style>.cls-1{fill:#fff;stroke-width:0px;}</style></defs><g id="Laag_1-2"><path class="cls-1" d="m41.32,15.67c-13,0-25.99,0-38.99,0-.43,0-.85,0-1.28,0-.51,0-1.04-.02-.98-.74.05-.62.54-.55.96-.55.3,0,.61,0,.92,0,26.24,0,52.48,0,78.71,0,.37,0,.73,0,1.1,0,.39,0,.75.05.8.54.06.56-.28.75-.78.76-.49,0-.98,0-1.46,0-13,0-25.99,0-38.99,0Z"/><path class="cls-1" d="m64.39,8.59c0,.92-.01,1.84,0,2.75,0,.54-.03.97-.73.99-.71.02-.98-.27-.97-.98.03-1.59-.03-3.18.02-4.77.04-1.05-.25-1.57-1.42-1.57-1.24,0-1.38.66-1.35,1.64.04,1.04.05,2.08,0,3.12-.09,1.55-1.14,2.56-2.56,2.55-1.44-.01-2.43-1.02-2.49-2.58-.04-1.1-.05-2.21,0-3.3.05-1.04-.39-1.41-1.4-1.41-.98,0-1.47.32-1.44,1.38.05,1.59.01,3.18.01,4.77,0,.56.07,1.12-.77,1.16-.95.04-.9-.56-.89-1.2.01-1.71-.03-3.43.01-5.14.05-1.74.98-2.57,2.82-2.62,2.13-.06,3.2.72,3.31,2.53.07,1.22,0,2.45.02,3.67,0,.51.1,1.02.75,1.06.76.05.9-.48.91-1.08.01-1.16-.03-2.33.03-3.49.09-1.92,1.05-2.72,3.14-2.7,2.04.02,2.94.87,2.98,2.84.02.8,0,1.59,0,2.39Z"/><path class="cls-1" d="m43.13,3.37c5.66,0,5.69.03,5.62,5.74-.03,2.45-.73,3.19-3.15,3.22-1.46.02-2.93.06-4.39-.03-1.55-.09-2.5-.91-2.5-2.57,0-1.62.87-2.54,2.42-2.67,1.39-.12,2.8-.02,4.21-.04.56,0,.93.11.96.79.03.77-.37.93-1.02.92-1.1-.02-2.2-.01-3.29,0-.73,0-1.61-.1-1.57,1.01.04,1.08.93.92,1.65.94.43,0,.85,0,1.28,0,4.05,0,4.37-.4,3.8-4.51-.14-1.02-.75-1.13-1.53-1.13-1.77,0-3.54.03-5.31-.02-.58-.01-1.46.37-1.49-.77-.03-1.28.94-.84,1.57-.88.91-.06,1.83-.01,2.74-.01Z"/><path class="cls-1" d="m2.1,1.15c2.56-.02,5.12-.1,7.68-.05,1.88.03,3.11,1.23,3.2,3.08.08,1.65.08,3.31,0,4.96-.09,1.84-1.2,2.96-3.04,2.99-2.62.05-5.24-.03-7.86-.06-.03-.59-.05-1.18-.08-1.78.03-.1.07-.18.12-.27,2.44.02,4.87.01,7.31.06,1.07.02,1.57-.39,1.52-1.51-.06-1.22-.06-2.45,0-3.67.07-1.35-.5-1.89-1.82-1.86-2.32.04-4.63,0-6.95,0-.03-.63-.05-1.27-.08-1.9Z"/><path class="cls-1" d="m37.16,7.04c0,.67,0,1.35,0,2.02-.03,2.76-2,4.1-4.57,3.09-1-.39-1.55-1.15-1.55-2.26,0-1.1-.05-2.21.01-3.3.06-1.08-.31-1.56-1.44-1.56-1.14,0-1.48.5-1.44,1.57.06,1.53.02,3.06.01,4.59,0,.54.11,1.12-.75,1.15-.96.03-.89-.59-.88-1.22,0-1.71-.04-3.43.03-5.14.07-1.81,1.04-2.6,3.03-2.61,2,0,2.98.77,3.06,2.57.06,1.16,0,2.32-.01,3.49-.02,1.1.64,1.28,1.55,1.28.93,0,1.31-.38,1.29-1.32-.04-1.65,0-3.3-.02-4.95,0-.63.08-1.07.86-1.06.81.01.84.51.83,1.11-.01.86,0,1.71,0,2.57Z"/><path class="cls-1" d="m19.29,12.33c-1.1,0-2.2,0-3.3,0-.59,0-.91-.2-.91-.85,0-.67.37-.81.94-.81,1.95.01,3.91,0,5.86,0,.76,0,1.5.02,1.51-1.08.01-1.25-.9-.9-1.56-.92-1.46-.04-2.93.03-4.39-.02-2.26-.09-3.82-2.89-2.76-4.9.22-.41.58-.37.94-.38.56-.01.66.33.74.82.44,2.83.45,2.83,3.25,2.83.24,0,.49,0,.73,0,2.75,0,2.76,0,3.03-2.71.05-.55.1-.93.79-.95.75-.02.93.35.92,1.01-.02,1.84.04,3.68-.03,5.51-.06,1.52-.98,2.34-2.47,2.42-1.1.06-2.2.01-3.29.01,0,0,0,0,0,.01Z"/><path class="cls-1" d="m76.2,12.33c-.12,0-.24,0-.37,0-6.12.31-5.57-.94-5.32-6.85.06-1.38,1.19-2.08,2.58-2.11,2.07-.03,4.15-.02,6.22,0,.53,0,1.13-.13,1.17.75.05.95-.54.93-1.18.93-1.83,0-3.66.04-5.49-.02-1.2-.04-1.79.32-1.75,1.66.14,4.76-.67,3.9,3.94,3.99,1.22.02,2.44.02,3.66,0,.65,0,.83.32.82.91,0,.57-.31.74-.81.74-1.16,0-2.32,0-3.48,0Z"/><path class="cls-1" d="m68.48,20.19c2.42-.7,3.41-.4,4.08,1.16.66,1.54.18,3.55-.96,4.34-1.45,1.01-2.94-.31-4.43.11-.41.12-.3-.69-.3-1.08-.02-1.96,0-3.92,0-5.88,0-.61-.12-1.23.87-1.21.91.02.74.6.75,1.12.01.47,0,.94,0,1.44Zm-.08,2.71c.14.81-.11,1.79,1.26,1.8,1.3,0,1.54-.81,1.56-1.78.01-.88-.23-1.83-1.3-1.89-1.21-.06-1.42.91-1.51,1.87Z"/><path class="cls-1" d="m65.58,23.46c0,.43-.08.87.02,1.28.24,1.05-.25,1.47-1.12,1.1-.75-.31-1.26.12-1.88.2-1.19.16-2.29-.04-2.55-1.42-.27-1.39.6-1.97,1.86-2.17.69-.11,1.75.07,1.9-.73.18-.95-.74-.9-1.38-.71-.31.09-.51.57-.82.66-.43.13-1.04.34-1.31-.17-.21-.4.15-.83.49-1.09,1.12-.87,2.41-.81,3.66-.46,1.22.33,1.17,1.4,1.13,2.4-.01.37,0,.73,0,1.1Zm-2.89,1.51c.77-.07,1.2-.52,1.26-1.29.04-.56-.35-.53-.73-.47-.65.11-1.46.11-1.56.95-.07.57.47.79,1.03.81Z"/><path class="cls-1" d="m82.24,24.21c-.83,1.66-2.07,2.25-3.63,1.73-1.45-.48-2.28-1.88-2.07-3.46.21-1.58,1.41-2.7,2.95-2.72,1.55-.02,2.49.78,2.89,2.27.26.94.02,1.39-1.03,1.28-.6-.07-1.22-.05-1.82,0-.46.04-1.31-.32-1.17.62.12.8.87.93,1.59.81.77-.12,1.31-1.23,2.27-.53Zm-2.86-1.48c.65.06,1.35-.02,1.4-.75.04-.64-.53-1.03-1.21-1.03-.66,0-1.24.3-1.28.99-.04.68.49.88,1.1.79Z"/><path class="cls-1" d="m55.13,22.93c.03.69.09,1.39.81,1.71.73.33,1.28.04,1.68-.63.36-.62,1-.6,1.42-.31.56.39.03.89-.22,1.24-.82,1.11-1.95,1.4-3.24,1.02-1.48-.44-2.16-1.52-2.14-3.02.01-1.39.54-2.55,1.93-3,1.29-.41,2.55-.29,3.47.87.24.31.67.77.24,1.1-.43.33-1.09.35-1.47-.16-.46-.62-.98-.96-1.69-.56-.65.37-.79,1.04-.79,1.74Z"/><path class="cls-1" d="m68.2,7.77c0,1.22-.02,2.44,0,3.65.02.61-.19.88-.82.89-.65,0-.81-.29-.81-.89.02-2.37.02-4.75,0-7.12,0-.59.15-.9.81-.9.66,0,.83.32.82.9-.02,1.16,0,2.31,0,3.47Z"/><path class="cls-1" d="m2.1,1.15c.03.63.05,1.27.08,1.9l-.06-.04c-.53.02-.74.33-.73.84,0,1.89,0,3.79,0,5.68,0,.42.17.7.61.76.03.59.05,1.18.08,1.78-.13-.03-.25-.06-.38-.1-.05-.05-.1-.09-.14-.14.03.05.06.09.09.14-.33.05-.67.1-1,.15,0-3.67,0-7.34,0-11.01.49.01.97.02,1.46.04Z"/><path class="cls-1" d="m74.28,25.79c-.82-2.56-.21-5.19-.29-7.78-.02-.56.64-.32,1.04-.3-.33,2.69.74,5.5-.74,8.08Z"/><path class="cls-1" d="m.64,1.11c0,3.67,0,7.34,0,11.01C.13,12.22,0,11.9,0,11.49,0,8.25,0,5,0,1.76c0-.42.14-.71.64-.65Z"/><path class="cls-1" d="m74.28,25.79c1.48-2.58.41-5.4.74-8.08.26,0,.51.05.51.35.02,2.37.03,4.73.02,7.1,0,1.04-.71.72-1.28.63Z"/><path class="cls-1" d="m82.01,2.65c-.67-.13-1.21-.44-1-1.2.17-.62.08-1.52,1.21-1.45.84.06,1.25.48,1.19,1.25-.06.81-.57,1.29-1.4,1.39Z"/><path class="cls-1" d="m1.65,11.97s-.06-.09-.09-.14c.05.05.09.09.14.14,0,0-.05,0-.05,0Z"/><path class="cls-1" d="m2.12,3.01c0,2.34,0,4.67,0,7.01-.06.08-.1.17-.12.27-.44-.06-.61-.34-.61-.76,0-1.89,0-3.79,0-5.68,0-.51.2-.81.73-.84Z"/></g></svg>