<?xml version="1.0" encoding="UTF-8"?><svg id="Laag_2" xmlns="http://www.w3.org/2000/svg" viewBox="0 0 114.05 29.83"><defs><style>.cls-1{fill:#fff;stroke-width:0px;}</style></defs><g id="Laag_1-2"><path class="cls-1" d="m16.74,0c.81.1,1.63.17,2.44.29,2.04.3,4,.85,5.7,2.07,1.8,1.29,2.78,3.03,2.9,5.25,0,.09,0,.19,0,.28,0,.04-.02.09-.04.16h-7.09c-.05-.32-.08-.65-.15-.97-.42-1.78-1.56-2.89-3.28-3.34-1.92-.5-3.84-.39-5.67.42-1.85.82-2.91,2.33-3.56,4.18-.5,1.41-.73,2.88-.81,4.37-.15,2.63-.14,5.26.67,7.81,1.16,3.62,3.7,5.59,7.49,5.8,1.72.1,3.42,0,5.09-.47,1.36-.38,1.36-.39,1.36-1.8,0-2.12,0-4.25,0-6.37,0-.17,0-.34,0-.57h-7.18v-3.42h13.62v.47c0,4.2,0,8.4,0,12.6,0,.36-.13.53-.44.67-2.14,1.01-4.39,1.62-6.71,1.99-3.5.55-7.01.61-10.47-.24-4.01-.98-7.18-3.1-9.05-6.9-.85-1.72-1.29-3.56-1.47-5.47C.08,16.6.03,16.38,0,16.17c0-.92,0-1.84,0-2.76.06-.55.13-1.09.19-1.64.28-2.26.87-4.41,2.13-6.33C4.3,2.45,7.23,1.01,10.64.39c.98-.18,1.97-.26,2.96-.39,1.05,0,2.09,0,3.14,0Z"/><path class="cls-1" d="m53.65.67c.17,0,.3-.02.42-.02,4.1,0,8.21-.02,12.31.03,2.32.03,4.61.32,6.78,1.23,1.93.81,3.38,2.1,3.99,4.18.36,1.24.4,2.5.11,3.76-.43,1.91-1.68,3.18-3.44,3.91-1.1.46-2.28.72-3.43,1.07-.15.04-.3.07-.48.12.81.23,1.57.41,2.32.65,1.92.63,3.22,1.93,3.83,3.85.68,2.14,1.28,4.3,1.91,6.46.3,1.03.59,2.07.88,3.1.04.15.07.3.12.49-.18.01-.32.03-.45.03-1.87,0-3.74,0-5.61,0-.34,0-.49-.09-.59-.44-.75-2.63-1.53-5.25-2.31-7.88-.07-.24-.18-.47-.27-.71-.72-1.9-2.13-2.98-4.12-3.18-1.81-.18-3.63-.2-5.51-.3v12.47h-6.46V.67Zm6.45,12.99c1.05,0,2.06.02,3.07,0,1.71-.04,3.41-.14,5.03-.81,1.77-.73,2.69-2.12,2.68-4.07,0-2.07-.92-3.5-2.74-4.18-.57-.21-1.19-.38-1.79-.4-2.01-.07-4.02-.07-6.03-.09-.07,0-.14.04-.22.06v9.51Z"/><path class="cls-1" d="m82.62,29.5c.94-2.23,1.85-4.4,2.77-6.57,3.04-7.23,6.09-14.46,9.11-21.7.19-.46.42-.59.9-.58,2.06.03,4.12.02,6.18,0,.34,0,.5.11.62.42,3.89,9.33,7.79,18.65,11.69,27.98.05.13.1.26.16.45-.17.02-.31.04-.44.04-1.79,0-3.58,0-5.37.01-.33,0-.47-.13-.58-.41-.91-2.34-1.84-4.68-2.75-7.02-.12-.31-.25-.44-.6-.44-3.98.01-7.95.01-11.93,0-.33,0-.46.12-.57.41-.92,2.36-1.86,4.71-2.78,7.07-.09.24-.18.4-.49.39-1.87-.01-3.74,0-5.61,0-.08,0-.15-.02-.3-.03Zm15.81-24.19c-.05,0-.1,0-.15,0-1.62,4.2-3.24,8.41-4.87,12.64h9.89c-1.63-4.24-3.25-8.44-4.87-12.63Z"/><path class="cls-1" d="m37.41.67h6.4v28.82h-6.4V.67Z"/></g></svg>