<?xml version="1.0" encoding="UTF-8"?><svg id="Laag_2" xmlns="http://www.w3.org/2000/svg" viewBox="0 0 132 39.36"><defs><style>.cls-1{fill:#fdfefd;}.cls-1,.cls-2,.cls-3,.cls-4{stroke-width:0px;}.cls-2{fill:#fcfefd;}.cls-3{fill:#fbfdfc;}.cls-4{fill:#fcfdfc;}</style></defs><g id="Laag_1-2"><path class="cls-2" d="m.45,14.85c1.04.64,1.95,1.22,2.92,1.68,1.74.82,3.55,1.21,5.46.85.31-.06.63-.16.91-.32,1.08-.59,1.22-1.89.28-2.7-.54-.47-1.2-.75-1.87-1.01-1.23-.47-2.46-.93-3.68-1.42-.84-.34-1.62-.8-2.33-1.38C-1.03,8-.62,3.13,2.96,1.15,4.98.02,7.19-.12,9.43.07c1.8.15,3.5.68,5.17,1.36.36.15.48.34.47.71-.03.99-.03,1.99,0,2.98.02.5-.13.53-.55.35-1.44-.64-2.9-1.22-4.46-1.49-1.05-.18-2.1-.25-3.14.05-.29.08-.58.2-.83.35-.87.54-.96,1.47-.22,2.18.49.47,1.1.75,1.73.99,1.2.47,2.41.92,3.61,1.41.88.36,1.72.81,2.47,1.4,3.44,2.66,3.05,7.75-.76,9.86-1.43.79-2.99,1.08-4.61,1.13-2.67.09-5.18-.52-7.51-1.83-.2-.11-.36-.2-.36-.47.01-1.35,0-2.71,0-4.19Z"/><path class="cls-4" d="m35.07,25.65c3.16-3.75,6.88-6.51,12.11-6.33,3.87.13,6.26,3.22,5.67,7.14q-.14.9-1.06.9c-.95,0-1.9.02-2.85-.01-.44-.02-.64.11-.75.56-.29,1.18-.32,1.17.91,1.17.82,0,1.64.03,2.46-.01.59-.03.58.17.38.62-.46,1.03-.45,1.04-1.59,1.04-.78,0-1.55.02-2.33,0-.41-.02-.6.11-.71.52-.33,1.2-.35,1.2.92,1.2h2.02c-.03.12-.02.19-.06.24-2.58,3.41-5.84,5.78-10.12,6.54-1.2.21-2.41.18-3.59-.15-2.47-.69-4-2.58-4.18-5.16-.06-.82,0-1.64.13-2.45.06-.38.22-.53.63-.52.84.03,1.68-.02,2.52.02.48.02.68-.15.83-.59.37-1.17.39-1.16-.86-1.16-.67,0-1.34,0-2.01,0-.33,0-.45-.09-.28-.41.03-.06.06-.12.08-.18.24-.79.7-1.24,1.6-1.05.27.06.56,0,.84,0,1.29,0,1.28,0,1.66-1.22.14-.44-.01-.53-.41-.51-.64.02-1.28,0-1.93,0-.02-.07-.03-.13-.05-.2Zm2.82,9.62c.86-.03,1.88.1,2.88-.15,2.14-.55,3.75-1.65,4.26-3.99.3-1.41.73-2.79,1.1-4.18q.3-1.13,1.45-1.13,2.01,0,2.33-1.99s0-.04,0-.06c.13-.36-.03-.44-.37-.44-1.4.02-2.8-.02-4.2.02-2.42.09-4.36,1.71-4.91,4.04-.34,1.42-.69,2.84-1.01,4.27-.14.64-.49.91-1.13.89-.67-.02-1.34,0-2.01,0-.3,0-.47.05-.54.39-.14.65-.31,1.3-.51,1.94-.1.33-.03.42.3.41.73-.02,1.47,0,2.35,0Z"/><path class="cls-1" d="m96.91,19.98c-1.82,1.4-3.74,1.68-5.79,1.07-2.64-.78-4.48-3.3-4.66-6.3-.08-1.31.04-2.59.52-3.82,1.32-3.41,4.94-5.02,8.65-3.84.41.13.8.29,1.3.47v-1.11c0-1.88.01-3.75,0-5.63,0-.41.09-.56.53-.55,1.14.03,2.29.02,3.43,0,.37,0,.47.11.47.47,0,6.62,0,13.25,0,19.87,0,.36-.11.49-.48.48-1.08-.02-2.16-.03-3.24,0-.54.02-.83-.09-.72-.69.02-.1-.01-.2-.03-.43Zm.03-6.1c0-.97,0-1.94,0-2.91,0-.21.05-.43-.18-.58-1.63-1.04-4.31-1.14-5.36,1.2-.6,1.35-.64,2.76-.27,4.17.68,2.57,3.26,3.42,5.38,1.82.33-.25.45-.51.44-.92-.03-.93,0-1.85,0-2.78Z"/><path class="cls-4" d="m36.2,9.07c.99-1.15,2-1.94,3.36-2.24,3.25-.7,6.04,1.35,6.23,4.67.09,1.68.04,3.37.06,5.05,0,.28-.08.42-.39.45-1.23.14-2.41.47-3.55.95-.48.21-.52.04-.52-.38.02-1.49,0-2.98,0-4.47,0-.54-.03-1.08-.21-1.6-.46-1.36-1.78-1.91-3.07-1.29-.81.39-1.34,1.07-1.85,1.77-.15.21-.08.46-.09.69,0,2.59-.02,5.18.01,7.77,0,.53-.16.66-.66.64-1.03-.03-2.07-.04-3.11,0-.55.02-.68-.16-.68-.69.02-5.03.01-10.06.01-15.09,0-1.49.01-2.98,0-4.47,0-.43.08-.61.56-.6,1.1.04,2.2.03,3.3,0,.45-.01.58.12.58.58-.02,2.55-.01,5.09,0,7.64,0,.14.01.29.03.6Z"/><path class="cls-2" d="m78.27,16.73c0,.9,0,1.69,0,2.48,0,.33-.26.43-.47.56-1.94,1.27-4.09,1.64-6.36,1.54-1.13-.05-2.22-.24-3.28-.67-2.98-1.2-4.67-4-4.34-7.21.36-3.47,2.52-5.98,5.72-6.55,2.87-.5,5.42.08,7.35,2.41,1.2,1.44,1.57,3.17,1.63,5.01.02.52-.28.48-.61.48-2.93,0-5.87,0-8.8,0-.77,0-.78.01-.61.74.42,1.88,1.89,3.02,4,3.14,1.51.09,2.91-.22,4.22-.99.48-.28.95-.58,1.55-.95Zm-6.72-4.28c.86,0,1.72-.01,2.58,0,.34,0,.45-.09.4-.44-.18-1.5-1.42-2.63-2.94-2.65-1.58-.03-2.81,1.05-3.03,2.61-.05.36,0,.5.41.49.86-.03,1.72,0,2.58,0Z"/><path class="cls-2" d="m117.67,16.74c0,.89,0,1.68,0,2.47,0,.34-.25.43-.46.56-1.9,1.24-4.01,1.63-6.24,1.55-1.08-.04-2.14-.21-3.17-.58-3.06-1.11-4.86-3.89-4.6-7.11.29-3.6,2.5-6.17,5.8-6.76,3.24-.58,6.15.55,7.71,3.01.84,1.31,1.14,2.77,1.21,4.31.02.49-.13.61-.61.61-2.94-.02-5.87-.01-8.81-.01q-.77,0-.6.73c.42,1.89,1.87,3.02,3.98,3.15,1.49.09,2.87-.21,4.16-.95.5-.29.99-.61,1.61-.98Zm-6.76-4.29c.86,0,1.72-.01,2.58,0,.35,0,.5-.05.44-.46-.2-1.51-1.43-2.62-2.96-2.63-1.57-.02-2.81,1.07-3.02,2.62-.05.39.07.48.44.47.84-.02,1.68,0,2.52,0Z"/><path class="cls-3" d="m52.36,8.9c.41-.37.7-.66,1.01-.91,1.81-1.46,3.82-1.65,5.89-.76,1.98.84,2.74,2.56,2.79,4.59.06,2.93.02,5.87.03,8.8,0,.38-.14.48-.49.48-1.12-.01-2.24-.03-3.37,0-.5.02-.61-.17-.61-.64.02-2.55.01-5.09,0-7.64,0-.41,0-.82-.07-1.23-.27-1.71-1.99-2.51-3.42-1.53-1.06.73-1.88,1.61-1.79,3.12.11,1.87.03,3.75.03,5.6-.12.08-.19.03-.26-.03-1.07-.98-2.34-1.53-3.75-1.74-.33-.05-.43-.17-.43-.48,0-3.02,0-6.04,0-9.06,0-.35.08-.5.47-.49,1.16.02,2.33.02,3.5,0,.36,0,.51.1.49.48-.03.43,0,.86,0,1.44Z"/><path class="cls-4" d="m29.71,10.92c-1.27-.57-2.49-.95-3.81-.93-3,.06-4.79,2.46-3.98,5.35.57,2.04,2.56,3.16,4.91,2.78.9-.15,1.76-.42,2.6-.75.35-.13.51-.13.5.31-.02.78-.01,1.55,0,2.33,0,.24-.06.4-.31.49-2.7.95-5.43,1.23-8.16.19-3.05-1.16-4.65-3.83-4.43-7.28.2-3.05,2.36-5.58,5.47-6.38,2.34-.6,4.62-.25,6.87.48.29.09.35.25.35.52-.01.93,0,1.85,0,2.88Z"/><path class="cls-1" d="m124.54,10.79c.54-.78.95-1.59,1.51-2.31,1.6-2.06,3.55-2.32,5.62-.74.24.19.33.36.23.65-.33,1.02-.67,2.05-.97,3.08-.1.35-.23.42-.53.21-.19-.14-.41-.24-.62-.34-1.68-.84-2.92-.53-3.96,1.03-.82,1.23-1.42,2.53-1.3,4.1.1,1.35,0,2.72.03,4.08,0,.38-.08.54-.49.53-1.16-.03-2.33-.02-3.5,0-.33,0-.45-.1-.45-.44,0-4.4,0-8.81,0-13.21,0-.35.12-.44.45-.44,1.17.01,2.33.02,3.5,0,.43-.01.49.17.49.54-.02,1.09,0,2.19,0,3.28Z"/><path class="cls-1" d="m84.64,14.08c0,2.16-.01,4.31.01,6.47,0,.43-.13.55-.55.54-1.12-.02-2.24-.02-3.36,0-.38,0-.53-.09-.53-.5.01-4.38.01-8.76,0-13.14,0-.38.13-.47.48-.47,1.14.02,2.29.03,3.43,0,.45-.01.52.17.52.56-.02,2.18,0,4.36,0,6.54Z"/><path class="cls-3" d="m57.67,29.99c0-1.86.01-3.71,0-5.57,0-.43.13-.55.55-.55,1.94.02,3.88.02,5.83,0,.44,0,.54.15.53.56,0,1.06.01,1.06-1.06,1.06-1.19,0-2.37.01-3.56,0-.41,0-.57.11-.56.55.03.86.03,1.73,0,2.59-.02.45.16.54.57.53,1.21-.02,2.42,0,3.63,0,.82,0,.78,0,.83.84.03.59-.14.77-.74.75-1.21-.05-2.42,0-3.63-.02-.48-.01-.69.08-.66.63.05.88.03,1.77,0,2.65-.01.41.13.51.52.51,1.4-.02,2.81.02,4.21-.02.49-.01.67.13.6.61-.03.19-.02.39,0,.58.03.31-.1.41-.41.41-2.07-.01-4.14-.01-6.22,0-.42,0-.43-.21-.43-.52,0-1.86,0-3.71,0-5.57Z"/><path class="cls-3" d="m81.53,33.76c0,.49-.02.87,0,1.25.02.27-.16.37-.34.49-1.63,1.03-4,.98-5.29-.11-1.39-1.17-1.87-3.47-1.11-5.29.62-1.48,2.04-2.33,3.67-2.21,1.57.12,2.59,1.01,3.01,2.66.44,1.7.41,1.74-1.32,1.74-1.21,0-2.42.02-3.62,0-.45,0-.5.15-.39.53.38,1.36,1.55,2.08,3.05,1.87.82-.12,1.55-.47,2.34-.92Zm-3.45-2.52c.52,0,1.04-.01,1.55,0,.35.01.5-.05.4-.46-.24-1-.9-1.54-1.95-1.5-.99.04-1.82.76-1.96,1.67-.04.26.06.29.27.29.56,0,1.12,0,1.68,0Z"/><path class="cls-3" d="m91.49,30.13c-1.43-.81-2.79-1.27-4.03.06-.79.85-.9,2.52-.21,3.45,1.21,1.61,2.78,1.18,4.4.62,0,.42-.01.81,0,1.19.02.3-.12.41-.39.49-1.01.3-2.03.42-3.06.2-1.58-.35-2.67-1.55-2.94-3.15-.12-.7-.07-1.38.08-2.05.73-3.2,3.88-3.5,5.88-2.59.21.1.28.23.27.45,0,.41,0,.82,0,1.35Z"/><path class="cls-3" d="m128.41,30.12c-1.45-.81-2.85-1.29-4.09.14-.73.84-.82,2.45-.17,3.34,1.21,1.65,2.8,1.21,4.38.66.07,1.78.35,1.56-1.49,1.91-.77.15-1.55.1-2.3-.15-1.4-.48-2.24-1.46-2.54-2.91-.14-.69-.1-1.37.03-2.05.49-2.67,3.64-4.09,5.96-2.7.15.09.23.17.23.34,0,.44,0,.89,0,1.42Z"/><path class="cls-3" d="m95.51,29.45c.91-.96,1.84-1.94,2.87-3.03,0,.47.02.82,0,1.17-.02.33.09.47.44.45.56-.02,1.12.02,1.68,0,.55-.02.46.35.43.65-.03.3.25.8-.41.79-.56,0-1.12.01-1.68,0-.33,0-.46.11-.45.45.02,1.21,0,2.42.01,3.63.01.9.52,1.31,1.43,1.23.53-.05.97-.32,1.52-.5,0,.41-.01.77,0,1.13,0,.23-.1.35-.3.44-.84.35-1.69.53-2.58.27-1-.28-1.63-1.1-1.65-2.22-.02-1.21-.05-2.42,0-3.62.03-.68-.19-.89-.83-.8-.18.03-.38-.02-.49-.03Z"/><path class="cls-1" d="m68.56,29.94c0-1.81.02-3.62-.01-5.43,0-.53.16-.66.66-.63,1.09.05.92-.11.93.93,0,3.49-.01,6.98.02,10.47,0,.61-.09.87-.78.84-.62-.02-.84-.13-.82-.81.06-1.79.02-3.58.02-5.36Z"/><path class="cls-3" d="m84.95,1.71c.01,1.66-1.84,3.37-3.5,3.22-1.03-.09-1.67-.89-1.54-1.92.19-1.49,1.66-2.87,3.16-2.97,1.09-.07,1.86.62,1.87,1.67Z"/><path class="cls-3" d="m107.31,29.68c.42-.42.73-.88,1.15-1.25.86-.76,2.22-.64,2.95.24.12.14.13.25.04.39-.06.09-.11.18-.17.28q-.47.79-1.28.34c-.73-.41-1.41-.31-1.98.32-.49.53-.7,1.18-.7,1.89,0,1.21-.02,2.42,0,3.62.01.45-.11.64-.57.58-.15-.02-.3-.02-.45,0-.46.06-.58-.13-.58-.58.02-2.29.02-4.57,0-6.86,0-.47.1-.7.6-.62.19.03.39.02.58,0,.31-.02.42.1.41.41-.02.41,0,.82,0,1.23Z"/><path class="cls-1" d="m115.86,32.02c0-1.14.02-2.29,0-3.43,0-.41.09-.57.53-.56,1.28.04,1.04-.11,1.05,1.01.01,2.14-.01,4.27.02,6.41,0,.5-.13.72-.64.64-.17-.02-.35-.02-.52,0-.34.03-.44-.11-.44-.44.02-1.21,0-2.42,0-3.62Z"/><path class="cls-3" d="m116.96,24.8c.35.05.6.24.58.67-.02.52-.66,1.12-1.18,1.09-.4-.02-.64-.24-.62-.66.02-.52.66-1.11,1.22-1.09Z"/><path class="cls-3" d="m130.82,27.25v-1.36c.38.38.73.8,1.04-.08.19.56.15.96.07,1.46-.21-.3-.08-.54-.17-.8-.23.11-.48.32-.68-.02-.19.25.04.55-.26.79Z"/><path class="cls-3" d="m129.64,25.96h1.1c-.83.24-.44.86-.68,1.28-.25-.41.19-1.01-.43-1.28Z"/></g></svg>