<?xml version="1.0" encoding="UTF-8"?><svg id="Laag_2" xmlns="http://www.w3.org/2000/svg" viewBox="0 0 83.16 36.18"><defs><style>.cls-1{fill:#fff;stroke-width:0px;}</style></defs><g id="Laag_1-2"><path class="cls-1" d="m26.94,30.9c2.15,0,4.3,0,6.46,0,1.04,0,1.38-.29,1.57-1.32.18-.95.12-1.91.05-2.86-.06-.84-.68-1.02-1.41-1.02-2.48,0-4.96,0-7.44,0-4.08,0-6.52-2.44-6.52-6.52,0-.75,0-1.49,0-2.24,0-3.56,2.78-6.49,6.34-6.57,3.44-.07,6.87-.04,10.31-.01,1.52,0,2.45.96,2.49,2.47.02.66-.04,1.32.02,1.97.05.63-.16.8-.79.8-3.5-.03-6.99-.02-10.49,0-.38,0-.78.04-1.15.13-.25.06-.55.18-.69.38-.77,1.11-.55,2.36-.28,3.53.22.97,1.16,1.08,2.04,1.08,2.54,0,5.08-.01,7.62,0,3.46.02,5.59,2.14,5.58,5.61,0,1.61.15,3.23-.14,4.83-.55,3.04-2.69,4.95-5.77,4.99-4.21.05-8.43.03-12.64,0-1.58,0-2.49-.95-2.51-2.53-.02-.86-.29-1.98.14-2.52.46-.58,1.62-.16,2.48-.18,1.58-.03,3.17,0,4.75,0Z"/><path class="cls-1" d="m71.51,28.79c2-5.44,3.95-10.76,5.9-16.07.13-.36.25-.73.42-1.08.23-.5.58-.92,1.11-1.11,1.35-.49,2.47.13,3.47.89.9.69.89,1.7.51,2.7-1.05,2.73-2.11,5.45-3.16,8.17-1.42,3.67-2.84,7.34-4.26,11-.78,2.01-1.97,2.86-3.95,2.86-2,0-3.22-.86-3.98-2.83-2.45-6.34-4.9-12.67-7.35-19.01-.38-.97-.54-1.97.29-2.75.91-.87,2.04-1.39,3.34-1.13.83.17,1.27.83,1.55,1.59,1.94,5.32,3.88,10.64,5.82,15.96.08.22.16.44.3.81Z"/><path class="cls-1" d="m44.08,24.11c0-3.61,0-7.23,0-10.84,0-1.99.91-2.92,2.9-2.9.88.01,2.02-.38,2.58.18.51.52.14,1.65.14,2.51.01,5.65.02,11.29-.01,16.94,0,.76.21.94.95.94,3.91-.04,7.83,0,11.74-.03.68,0,.9.18.84.85-.06.59,0,1.19-.01,1.79-.02,1.69-.96,2.61-2.72,2.61-4.42,0-8.85,0-13.27,0-.75,0-1.5-.06-2.24.02-.78.07-.92-.24-.91-.95.03-3.7.02-7.41.02-11.11Z"/><path class="cls-1" d="m8.09,5.77c0,1.25.04,2.51-.02,3.76-.03.7.22.85.87.84,1.73-.04,3.46-.02,5.19-.01,1.47,0,2.04.59,2.06,2.07,0,.21-.02.42,0,.63.07.57-.12.8-.74.77-1.04-.05-2.09,0-3.13-.02-.51-.01-.67.18-.66.68.02,1.79-.03,3.58.03,5.37.02.73-.23.97-.91.87-.09-.01-.18,0-.27,0-1.96,0-2.45-.49-2.46-2.41,0-2.36-.03-4.72.02-7.07.01-.72-.2-.9-.9-.88-1.73.05-3.46.02-5.19.01-1.4,0-1.95-.56-1.97-1.95q-.02-1.53,1.48-1.53c.78,0,1.55-.02,2.33,0,.51.02.67-.17.67-.67-.02-1.76.03-3.52-.03-5.28-.03-.78.25-1.02.97-.92.23.03.48,0,.72,0,1.37.02,1.94.59,1.95,1.99.01,1.25,0,2.51,0,3.76Z"/></g></svg>